<?xml version="1.0" standalone="no"?>
<!DOCTYPE svg PUBLIC "-//W3C//DTD SVG 20010904//EN"
 "http://www.w3.org/TR/2001/REC-SVG-20010904/DTD/svg10.dtd">
<svg version="1.0" xmlns="http://www.w3.org/2000/svg"
 width="512.000000pt" height="512.000000pt" viewBox="0 0 512.000000 512.000000"
 preserveAspectRatio="xMidYMid meet">
<metadata>
Created by potrace 1.11, written by Peter Selinger 2001-2013
</metadata>
<g transform="translate(0.000000,512.000000) scale(0.100000,-0.100000)"
fill="#000000" stroke="none">
<path d="M1395 3585 c-410 -60 -707 -341 -799 -755 -44 -197 -40 -453 10 -640
8 -30 17 -62 19 -70 18 -72 97 -225 156 -305 176 -239 408 -345 764 -347 280
-2 481 75 650 246 122 125 190 259 202 397 7 84 -7 128 -57 173 -43 39 -88 51
-156 43 -68 -7 -103 -47 -159 -182 -60 -146 -141 -240 -254 -296 -153 -76
-385 -63 -526 28 -118 77 -205 222 -235 393 -6 33 -12 72 -15 87 -7 38 -7 276
-1 305 3 13 8 41 10 63 28 237 166 435 352 505 70 26 103 31 194 32 200 0 333
-84 451 -285 69 -118 111 -164 159 -177 79 -21 136 -5 188 54 64 73 62 175 -6
311 -26 54 -102 153 -149 196 -95 88 -294 189 -422 214 -110 21 -269 25 -376
10z"/>
<path d="M2900 3579 c-55 -25 -87 -63 -106 -129 -15 -49 -17 -144 -16 -900 0
-465 3 -867 6 -895 9 -68 35 -114 84 -149 83 -59 197 -49 263 22 56 59 62 95
63 369 1 203 4 246 17 260 8 10 85 84 169 166 121 115 157 144 165 135 15 -16
462 -706 524 -807 51 -86 111 -147 161 -169 19 -8 64 -15 100 -15 127 0 204
69 201 179 -2 83 -40 155 -190 369 -46 66 -105 149 -129 185 -25 36 -102 146
-172 245 -69 99 -146 209 -170 244 l-43 64 74 71 c41 39 150 143 243 231 220
208 232 221 260 278 68 134 -33 270 -193 261 -84 -5 -104 -21 -371 -301 -63
-66 -198 -207 -300 -312 -102 -106 -221 -231 -265 -277 l-80 -84 0 403 -1 403
-27 55 c-14 30 -39 64 -55 76 -53 39 -151 49 -212 22z"/>
</g>
</svg>
